<svg version="1.0" xmlns="http://www.w3.org/2000/svg"
 width="24" height="24" viewBox="0 0 64.000000 64.000000"
 preserveAspectRatio="xMidYMid meet">

<g transform="translate(0.000000,64.000000) scale(0.100000,-0.100000)"
fill="white" stroke="none">
<path d="M294 615 c-4 -8 -3 -23 1 -32 4 -10 7 -30 6 -45 -2 -23 2 -28 19 -28
17 0 21 5 19 28 -1 15 2 35 6 45 10 25 -1 47 -25 47 -11 0 -23 -7 -26 -15z"/>
<path d="M102 478 c-5 -7 -13 -100 -17 -206 l-7 -192 242 0 242 0 -7 192 c-4
106 -12 199 -17 206 -8 9 -64 12 -218 12 -154 0 -210 -3 -218 -12z m180 -98
c16 -28 16 -32 0 -60 -14 -24 -24 -30 -52 -30 -28 0 -38 6 -52 30 -16 28 -16
32 0 60 14 24 24 30 52 30 28 0 38 -6 52 -30z m180 0 c16 -28 16 -32 0 -60
-14 -24 -24 -30 -52 -30 -28 0 -38 6 -52 30 -16 28 -16 32 0 60 14 24 24 30
52 30 28 0 38 -6 52 -30z m-2 -205 c0 -48 -2 -55 -20 -55 -17 0 -20 7 -20 40
0 33 -3 40 -20 40 -17 0 -20 -7 -20 -40 0 -33 -3 -40 -20 -40 -17 0 -20 7 -20
40 0 33 -3 40 -20 40 -17 0 -20 -7 -20 -40 0 -33 -3 -40 -20 -40 -17 0 -20 7
-20 40 0 33 -3 40 -20 40 -17 0 -20 -7 -20 -40 0 -33 -3 -40 -20 -40 -18 0
-20 7 -20 55 l0 55 140 0 140 0 0 -55z"/>
<path d="M204 366 c-10 -26 4 -48 28 -44 33 4 33 52 0 56 -13 2 -25 -3 -28
-12z"/>
<path d="M384 366 c-10 -26 4 -48 28 -44 33 4 33 52 0 56 -13 2 -25 -3 -28
-12z"/>
<path d="M20 345 c0 -8 -4 -15 -10 -15 -5 0 -10 -20 -10 -45 0 -25 5 -45 10
-45 6 0 10 -7 10 -15 0 -8 9 -15 20 -15 18 0 20 7 20 75 0 68 -2 75 -20 75
-11 0 -20 -7 -20 -15z"/>
<path d="M580 285 c0 -68 2 -75 20 -75 11 0 20 7 20 15 0 8 5 15 10 15 6 0 10
20 10 45 0 25 -4 45 -10 45 -5 0 -10 7 -10 15 0 8 -9 15 -20 15 -18 0 -20 -7
-20 -75z"/>
</g>
</svg>
