<svg version="1.0" xmlns="http://www.w3.org/2000/svg"
 width="24" height="24" viewBox="0 0 100.000000 100.000000"
 preserveAspectRatio="xMidYMid meet">

<g transform="translate(0.000000,100.000000) scale(0.100000,-0.100000)"
fill="#ffffff" stroke="none">
<path d="M630 878 c-11 -12 -20 -30 -20 -39 0 -14 -6 -11 -29 12 -43 43 -92
35 -112 -19 -9 -24 -12 -25 -22 -11 -13 17 -50 39 -66 39 -20 0 -51 -40 -51
-66 l0 -26 -26 31 c-48 58 -114 32 -114 -45 0 -34 -4 -41 -30 -52 -30 -14 -30
-15 -23 -65 4 -29 7 -145 8 -259 l0 -208 23 0 c12 0 22 -4 22 -10 0 -5 14 -10
30 -10 19 0 30 -5 30 -14 0 -17 2 -17 215 19 77 13 193 38 258 55 65 16 120
30 123 30 9 0 3 125 -11 237 -22 166 -53 313 -70 330 -8 8 -15 20 -15 27 0 23
-48 66 -74 66 -14 0 -34 -10 -46 -22z m65 -4 c22 -9 45 -57 45 -97 0 -34 -33
-78 -47 -63 -5 4 0 12 10 17 35 20 12 129 -28 129 -19 0 -28 -17 -27 -51 0
-16 -4 -29 -9 -29 -12 0 -12 57 1 81 11 20 27 23 55 13z m-121 -47 c26 -35 28
-100 4 -124 -10 -9 -20 -14 -24 -10 -3 3 1 13 10 22 20 21 20 57 1 95 -26 51
-65 35 -65 -26 0 -13 -4 -24 -10 -24 -16 0 -12 53 6 78 21 30 51 25 78 -11z
m-169 7 c40 -16 62 -128 30 -154 -9 -7 -19 -10 -22 -6 -4 4 -3 10 3 14 29 19
17 106 -16 127 -18 11 -42 -24 -37 -52 5 -25 -8 -31 -16 -9 -8 21 3 59 21 74
18 14 16 14 37 6z m295 -29 c0 -7 -7 -15 -15 -19 -11 -4 -15 2 -15 26 0 26 2
29 15 18 8 -7 15 -18 15 -25z m-150 -5 c12 -23 6 -40 -16 -40 -9 0 -14 11 -14
30 0 35 14 39 30 10z m-274 2 c41 -27 48 -152 9 -152 -11 0 -10 6 2 30 12 24
12 37 3 64 -22 67 -62 71 -64 7 -1 -42 -16 -40 -16 2 0 48 32 72 66 49z m132
-41 c3 -16 -1 -22 -10 -19 -7 3 -15 15 -16 27 -3 16 1 22 10 19 7 -3 15 -15
16 -27z m-138 -22 c0 -10 -4 -19 -9 -19 -12 0 -23 29 -15 41 8 14 24 0 24 -22z
m514 -76 c2 -10 7 -32 11 -49 6 -30 4 -32 -31 -38 -44 -9 -50 -4 -59 51 -6 41
-6 42 27 46 18 2 36 5 40 5 4 1 9 -6 12 -15z m-96 -50 c6 -26 10 -48 9 -49 -1
-1 -21 -5 -44 -9 -45 -7 -44 -8 -58 62 -6 29 -4 32 22 36 61 9 61 9 71 -40z
m-113 -5 c4 -18 9 -40 11 -49 4 -13 -5 -18 -42 -24 -25 -3 -47 -5 -49 -3 -2 2
-6 24 -10 50 -7 43 -5 47 16 51 59 11 67 8 74 -25z m-111 -19 c12 -62 9 -67
-39 -75 -25 -3 -48 -4 -50 -2 -3 3 -9 25 -14 51 -9 51 -7 52 65 56 28 1 32 -3
38 -30z m-120 -41 l7 -47 -46 -7 c-25 -3 -48 -5 -50 -3 -2 2 -5 27 -7 54 l-3
50 40 5 c22 3 43 3 46 0 4 -3 10 -26 13 -52z m-124 40 c0 -2 7 -57 15 -123 19
-155 20 -295 2 -295 -11 0 -15 36 -20 158 -4 86 -10 181 -13 210 -5 36 -3 52
5 52 6 0 11 -1 11 -2z m-36 -50 c3 -24 9 -112 12 -195 7 -146 6 -153 -12 -153
-18 0 -19 10 -19 195 0 190 6 239 19 153z m624 -24 c3 -41 2 -42 -34 -48 -20
-4 -37 -6 -39 -4 -1 2 -5 22 -9 45 -6 40 -5 42 21 46 52 8 58 4 61 -39z m-104
10 c3 -9 6 -28 6 -44 0 -24 -5 -29 -41 -38 -44 -11 -44 -12 -52 50 -5 32 -3
37 16 41 46 9 65 6 71 -9z m-103 -52 c6 -46 11 -42 -67 -58 -23 -4 -34 17 -34
68 0 28 18 37 70 34 22 -1 26 -7 31 -44z m-121 6 c0 -13 3 -33 6 -45 6 -23 0
-26 -68 -38 l-38 -6 0 50 c0 47 2 50 28 54 64 10 72 8 72 -15z m-122 -45 l-3
-48 -47 -3 -48 -3 0 45 c0 41 2 45 28 49 74 11 73 11 70 -40z m462 -7 c0 -13
3 -31 6 -39 4 -11 -5 -19 -33 -26 -54 -15 -53 -16 -53 33 0 46 6 52 58 55 17
1 22 -4 22 -23z m-100 -40 c0 -43 -1 -44 -40 -54 -37 -9 -41 -8 -46 13 -10 41
-1 69 26 76 55 15 60 12 60 -35z m-108 -22 c2 -25 1 -47 -2 -49 -3 -2 -26 -6
-52 -10 l-48 -7 0 46 c0 39 3 46 23 50 44 10 62 14 68 15 4 0 9 -20 11 -45z
m-124 -69 c-2 -2 -24 -6 -50 -10 l-48 -7 0 46 c0 48 3 51 70 58 23 3 25 -1 28
-41 2 -24 2 -44 0 -46z m-118 19 c0 -41 -2 -44 -27 -44 -16 0 -38 -3 -51 -6
-22 -6 -23 -5 -20 42 3 49 3 49 43 54 22 3 43 4 48 2 4 -2 7 -23 7 -48z m460
-8 c0 -49 -1 -51 -47 -61 l-33 -7 0 46 c0 43 2 46 33 55 17 5 35 10 40 10 4 1
7 -19 7 -43z m-100 -30 c0 -40 -3 -44 -27 -50 -16 -4 -36 -9 -46 -12 -16 -5
-18 0 -15 42 3 42 6 49 28 55 55 15 60 12 60 -35z m-110 -29 l0 -43 -50 -10
-50 -11 0 48 c0 51 4 54 73 58 25 1 27 -1 27 -42z m-120 -22 c0 -43 -1 -44
-37 -50 -21 -4 -46 -9 -55 -12 -15 -4 -18 3 -18 46 0 54 2 55 83 60 26 1 27
-1 27 -44z m-130 -15 c0 -44 -18 -60 -69 -60 -30 0 -31 2 -31 44 0 48 6 53 68
55 31 1 32 0 32 -39z"/>
</g>
</svg>
