<svg version="1.0" xmlns="http://www.w3.org/2000/svg"
width="24" height="24" viewBox="0 0 50.000000 50.000000"
 preserveAspectRatio="xMidYMid meet">

<g transform="translate(0.000000,50.000000) scale(0.100000,-0.100000)"
fill="#99938a" stroke="none">
<path d="M253 448 c2 -7 -3 -26 -13 -43 -10 -16 -23 -46 -29 -66 -11 -35 -43
-59 -76 -59 -8 0 -15 -6 -15 -13 0 -17 132 -147 149 -147 8 0 12 3 8 6 -10 11
32 84 49 84 9 0 37 10 63 23 25 13 52 22 59 19 28 -9 7 19 -86 111 -92 92
-120 113 -109 85z"/>
<path d="M110 125 c-35 -36 -61 -68 -57 -72 4 -4 37 23 73 59 37 36 62 68 57
71 -5 3 -38 -23 -73 -58z"/>
</g>
</svg>
