<?xml version="1.0" standalone="no"?>
<!DOCTYPE svg PUBLIC "-//W3C//DTD SVG 20010904//EN"
 "http://www.w3.org/TR/2001/REC-SVG-20010904/DTD/svg10.dtd">
<svg version="1.0" xmlns="http://www.w3.org/2000/svg"
 width="24" height="24" viewBox="0 0 50.000000 50.000000"
 preserveAspectRatio="xMidYMid meet">

<g transform="translate(0.000000,50.000000) scale(0.100000,-0.100000)"
fill="#fff" stroke="none">
<path d="M166 349 c-42 -50 -76 -95 -76 -99 0 -12 150 -190 160 -190 10 0 160
178 160 190 0 12 -150 190 -160 190 -5 0 -42 -41 -84 -91z m39 -63 c-7 -46
-12 -49 -52 -38 -22 7 -21 8 14 50 19 24 37 41 40 38 2 -2 1 -25 -2 -50z m134
-39 c-17 -5 -33 -7 -34 -5 -2 2 -6 26 -10 53 l-6 50 40 -45 41 -45 -31 -8z
m-79 64 c0 -10 3 -33 6 -50 6 -27 4 -31 -16 -31 -20 0 -22 4 -16 31 3 17 6 40
6 50 0 11 5 19 10 19 6 0 10 -8 10 -19z m-63 -116 c9 -25 -2 -27 -22 -5 -17
18 -17 20 -1 20 9 0 19 -7 23 -15z m128 -5 c-20 -22 -31 -20 -22 5 4 8 14 15
23 15 16 0 16 -2 -1 -20z m-61 -17 c-4 -16 -8 -30 -10 -32 -6 -7 -11 2 -18 32
-5 23 -3 27 14 27 17 0 19 -4 14 -27z"/>
</g>
</svg>
