<svg xmlns="http://www.w3.org/2000/svg" width="24" height="24" fill="currentColor"
  color="#99938a"
  viewBox="0 0 24 24" part="icon blz-icon">
  <path
    d="M9 20H5c-.3 0-.5-.1-.7-.3S4 19.3 4 19V5c0-.3.1-.5.3-.7S4.7 4 5 4h4c.6 0 1-.4 1-1s-.4-1-1-1H5c-.8 0-1.6.3-2.1.9S2 4.2 2 5v14c0 .8.3 1.6.9 2.1.5.6 1.3.9 2.1.9h4c.6 0 1-.4 1-1s-.4-1-1-1"></path>
  <path
    d="m21.7 11.3-5-5c-.4-.4-1-.4-1.4 0s-.4 1 0 1.4l3.3 3.3H9c-.6 0-1 .4-1 1s.4 1 1 1h9.6l-3.3 3.3c-.4.4-.4 1 0 1.4s1 .4 1.4 0l5-5c.4-.4.4-1 0-1.4"></path>
</svg>