<svg version="1.0" xmlns="http://www.w3.org/2000/svg"
  width="24" height="24" viewBox="0 0 66.000000 66.000000"
  preserveAspectRatio="xMidYMid meet">

  <g transform="translate(0.000000,66.000000) scale(0.100000,-0.100000)"
    fill="#ffffff" stroke="none">
    <path d="M200 625 c0 -8 5 -15 10 -15 6 0 10 7 10 15 0 8 -4 15 -10 15 -5 0
-10 -7 -10 -15z" />
    <path
      d="M50 604 c0 -17 -6 -28 -20 -31 -11 -3 -20 -12 -20 -19 0 -10 14 -14
50 -14 38 0 50 4 50 15 0 8 -9 15 -20 15 -16 0 -20 7 -20 30 0 17 -4 30 -10
30 -5 0 -10 -12 -10 -26z" />
    <path
      d="M590 600 c0 -23 -4 -30 -20 -30 -11 0 -20 -7 -20 -15 0 -11 12 -15
50 -15 36 0 50 4 50 14 0 7 -9 16 -20 19 -14 3 -20 14 -20 31 0 14 -4 26 -10
26 -5 0 -10 -13 -10 -30z" />
    <path d="M160 590 c0 -5 7 -10 15 -10 8 0 15 5 15 10 0 6 -7 10 -15 10 -8 0
-15 -4 -15 -10z" />
    <path d="M228 588 c9 -9 15 -9 24 0 9 9 7 12 -12 12 -19 0 -21 -3 -12 -12z" />
    <path d="M200 559 c0 -11 5 -17 10 -14 6 3 10 13 10 21 0 8 -4 14 -10 14 -5 0
-10 -9 -10 -21z" />
    <path d="M360 560 c0 -5 5 -10 10 -10 6 0 10 5 10 10 0 6 -4 10 -10 10 -5 0
-10 -4 -10 -10z" />
    <path d="M405 560 c-4 -6 12 -10 39 -10 25 0 46 5 46 10 0 6 -18 10 -39 10
-22 0 -43 -4 -46 -10z" />
    <path
      d="M27 513 c-4 -3 -7 -87 -7 -185 l0 -178 35 0 35 0 0 185 0 185 -28 0
c-16 0 -32 -3 -35 -7z" />
    <path d="M570 336 l0 -186 35 0 35 0 -2 183 -3 182 -32 3 -33 3 0 -185z" />
    <path
      d="M117 504 c-4 -4 -7 -83 -7 -176 l0 -168 220 0 220 0 -2 173 -3 172
-211 3 c-115 1 -213 -1 -217 -4z m233 -114 c10 -24 19 -30 41 -30 34 0 37 -10
8 -36 -16 -14 -19 -26 -14 -52 l6 -33 -30 16 c-28 14 -34 14 -62 0 l-30 -16 6
33 c5 26 2 38 -14 52 -29 26 -26 36 8 36 22 0 31 6 41 30 7 17 16 30 20 30 4
0 13 -13 20 -30z" />
    <path
      d="M10 110 c0 -13 7 -20 20 -20 16 0 20 -7 20 -31 0 -17 4 -28 10 -24 6
3 10 17 10 31 0 17 5 24 20 24 13 0 20 7 20 20 0 17 -7 20 -50 20 -43 0 -50
-3 -50 -20z" />
    <path
      d="M550 110 c0 -13 7 -20 20 -20 15 0 20 -7 20 -24 0 -14 5 -28 10 -31
6 -4 10 7 10 24 0 24 4 31 20 31 13 0 20 7 20 20 0 17 -7 20 -50 20 -43 0 -50
-3 -50 -20z" />
    <path d="M160 110 c0 -5 18 -10 40 -10 22 0 40 5 40 10 0 6 -18 10 -40 10 -22
0 -40 -4 -40 -10z" />
    <path d="M265 110 c-3 -5 1 -10 9 -10 9 0 16 5 16 10 0 6 -4 10 -9 10 -6 0
-13 -4 -16 -10z" />
    <path
      d="M445 103 c-4 -11 -17 -24 -28 -28 -19 -6 -20 -8 -5 -12 10 -2 25 3
34 11 8 9 13 24 11 34 -4 15 -6 14 -12 -5z" />
    <path d="M470 70 c0 -5 7 -10 15 -10 8 0 15 5 15 10 0 6 -7 10 -15 10 -8 0
-15 -4 -15 -10z" />
    <path d="M440 35 c0 -8 5 -15 10 -15 6 0 10 7 10 15 0 8 -4 15 -10 15 -5 0
-10 -7 -10 -15z" />
  </g>
</svg>