<svg version="1.0" xmlns="http://www.w3.org/2000/svg"
  width="24" height="24" viewBox="0 0 50.000000 50.000000"
  preserveAspectRatio="xMidYMid meet">

  <g transform="translate(0.000000,50.000000) scale(0.100000,-0.100000)"
    fill="#ffffff" stroke="none">
    <path
      d="M52 437 c-12 -13 -22 -35 -22 -50 l0 -27 140 0 140 0 0 28 c0 15 7
38 16 50 l15 22 -134 0 c-127 0 -135 -1 -155 -23z" />
    <path
      d="M351 441 c-8 -5 -17 -29 -20 -53 l-6 -43 -117 -3 -118 -3 0 -149 0
-150 80 0 c64 0 80 -3 80 -15 0 -18 2 -18 35 -3 19 9 28 9 37 0 16 -16 28 -15
28 3 0 11 11 15 40 15 l40 0 0 189 c0 159 -3 192 -16 205 -17 18 -42 20 -63 7z
m9 -141 c0 -6 -40 -10 -100 -10 -60 0 -100 4 -100 10 0 6 40 10 100 10 60 0
100 -4 100 -10z m0 -60 c0 -6 -40 -10 -100 -10 -60 0 -100 4 -100 10 0 6 40
10 100 10 60 0 100 -4 100 -10z m-30 -60 c11 -11 20 -23 20 -28 0 -18 -33 -52
-50 -52 -17 0 -50 34 -50 52 0 11 38 48 50 48 6 0 19 -9 30 -20z m0 -121 c0
-18 -2 -19 -15 -9 -12 10 -18 10 -30 0 -13 -10 -15 -9 -15 9 0 17 6 21 30 21
24 0 30 -4 30 -21z" />
  </g>
</svg>