<svg version="1.0" xmlns="http://www.w3.org/2000/svg"
 width="24" height="24" viewBox="0 0 66.000000 66.000000"
 preserveAspectRatio="xMidYMid meet">

<g transform="translate(0.000000,66.000000) scale(0.100000,-0.100000)"
fill="#ffffff" stroke="none">
<path d="M64 593 c-31 -73 -1 -125 136 -233 l37 -29 39 40 38 39 -109 110
c-60 61 -113 110 -118 110 -4 0 -15 -16 -23 -37z"/>
<path d="M455 518 c-61 -62 -139 -143 -175 -180 l-64 -68 33 -34 34 -35 153
135 c173 152 190 179 163 250 -8 21 -19 39 -24 41 -6 2 -60 -48 -120 -109z"/>
<path d="M382 257 c-27 -28 -30 -36 -19 -45 11 -9 21 -4 46 22 18 19 30 39 27
45 -11 17 -20 13 -54 -22z"/>
<path d="M141 267 c-8 -11 -5 -19 14 -37 l25 -23 -66 -69 c-66 -68 -72 -83
-41 -102 14 -9 29 1 85 57 l68 68 24 -26 c27 -29 38 -31 47 -9 4 11 -16 38
-63 85 -38 38 -71 69 -75 69 -4 0 -12 -6 -18 -13z"/>
<path d="M427 212 c-37 -37 -67 -73 -67 -79 0 -25 23 -24 49 1 l27 26 64 -65
c68 -68 80 -74 100 -50 10 13 2 27 -53 89 l-66 73 25 22 c21 18 23 25 14 37
-7 8 -15 14 -19 14 -4 0 -37 -30 -74 -68z"/>
</g>
</svg>
